# xmcd
#
# Track frame offsets:
# 150
# 10613
# 20016
# 32214
# 43548
# 57403
# 65174
# 74868
# 86038
# 97734
# 109429
# 122869
# 132145
# 143670
# 152180
# 162667
# 170537
# 183063
# 194463
# 206207
# 216974
# 227835
# 239031
# 249751
# 259277
# 271634
# 283082
# 292189
# 303118
# 313736
# 320941
# 333334
#
# Disc length: 4577 seconds
#
# Revision: 2
# Processed by: cddbd v1.5.2PL0 Copyright (c) Steve Scherf et al.
# Submitted via: Axialis_AX_CDPlayer 2.6
#
DISCID=f511df20
DTITLE=Dave Bartholomew - The Best Of Dave Bartholomew
DYEAR=1900
DGENRE=Blues
TTITLE0=Jump Children
TTITLE1=Good News
TTITLE2=Carnival Day
TTITLE3=Ain't Gonna Do It
TTITLE4=Country Boy
TTITLE5=Got You On My Mind
TTITLE6=Would You
TTITLE7=Saint's Boogie
TTITLE8=No More Black Nights
TTITLE9=Country Boy Goes Home
TTITLE10=Messy Bessy
TTITLE11=Shrimp And Gumbo
TTITLE12=The Ice Man
TTITLE13=Can't Take It No More
TTITLE14=Hard Times
TTITLE15=Kiss Me Baby
TTITLE16=Who Drank My Beer
TTITLE17=Shufflin' Fox
TTITLE18=Nickel Wine
TTITLE19=Another Mule
TTITLE20=I'm An Old Cowhand From A Blues Band
TTITLE21=The Monkey
TTITLE22=Country Gal
TTITLE23=Turn Your Lamp Down Low
TTITLE24=Snatchin' Back
TTITLE25=Oh Cubanas
TTITLE26=Cat Music
TTITLE27=Every Night, Every Day
TTITLE28=Let The Four Winds Blow
TTITLE29=Night Train
TTITLE30=In The Alley
TTITLE31=My Ding A Ling
EXTD=
EXTT0=
EXTT1=
EXTT2=
EXTT3=
EXTT4=
EXTT5=
EXTT6=
EXTT7=
EXTT8=
EXTT9=
EXTT10=
EXTT11=
EXTT12=
EXTT13=
EXTT14=
EXTT15=
EXTT16=
EXTT17=
EXTT18=
EXTT19=
EXTT20=
EXTT21=
EXTT22=
EXTT23=
EXTT24=
EXTT25=
EXTT26=
EXTT27=
EXTT28=
EXTT29=
EXTT30=
EXTT31=
PLAYORDER=
